<svg width="31" height="27" viewBox="0 0 31 27" fill="none" xmlns="http://www.w3.org/2000/svg">
<path d="M14.7402 26.8474C22.8808 26.8474 29.4801 26.587 29.4801 26.2658C29.4801 25.9447 22.8808 25.6843 14.7402 25.6843C6.5996 25.6843 0.000335693 25.9447 0.000335693 26.2658C0.000335693 26.587 6.5996 26.8474 14.7402 26.8474Z" fill="#C0CAD5"/>
<path d="M18.5304 9.81724L18.0926 9.83643L18.1198 10.457L18.5576 10.4378L18.5304 9.81724Z" fill="#904952"/>
<path style="mix-blend-mode:multiply" opacity="0.38" d="M18.0099 9.96454C17.5267 9.88069 16.9361 10.061 16.5097 10.1854C15.8723 10.3711 15.2168 10.5154 14.5478 10.5181C14.2269 10.519 13.8798 10.4838 13.5994 10.3152C13.292 10.1304 13.0738 9.80496 12.9043 9.49662C12.5355 8.82494 12.2705 8.04328 12.1073 7.29677C12.0189 6.89286 11.9657 6.4565 12.0216 6.04358C11.8089 6.5674 11.9234 7.32021 12.0802 7.8846C12.2569 8.52111 12.513 9.13779 12.8069 9.72922C12.9854 10.089 13.1459 10.5064 13.4155 10.8219C13.7806 11.2502 14.0953 11.1546 14.6001 11.0897C15.728 10.9445 16.6873 10.7489 17.8061 10.5488C17.9765 10.5181 18.0703 10.3351 17.9973 10.1791L18.009 9.96544L18.0099 9.96454Z" fill="url(#paint0_linear_486_6515)"/>
<path opacity="0.39" d="M13.4145 5.76131C13.4208 5.90285 13.2053 6.02637 12.9331 6.03809C12.6608 6.04981 12.4354 5.94523 12.4291 5.80368C12.4228 5.66213 12.6382 5.53862 12.9105 5.5269C13.1828 5.51518 13.4082 5.61976 13.4145 5.76131Z" fill="#46467C"/>
<path d="M18.0533 10.6028C17.9027 10.6091 17.9938 10.482 17.9866 10.3314L17.973 10.0249C17.9667 9.87434 17.8648 9.75533 18.0154 9.74902C18.166 9.74271 18.2949 9.85992 18.3012 10.0105L18.3147 10.317C18.321 10.4676 18.2038 10.5965 18.0533 10.6028Z" fill="#7373A7"/>
<path d="M18.5825 10.6741C18.5825 10.6741 18.7231 10.6291 18.7673 10.5849C18.8917 10.4605 19.1261 10.5912 19.3164 10.4001C19.3164 10.4001 19.5246 10.0349 19.6734 10.0376C19.6734 10.0376 19.8159 10.0782 19.9024 10.0773C19.9024 10.0773 20.044 10.1918 20.227 10.1765C20.227 10.1765 20.4623 10.3388 20.5858 10.2576C20.5858 10.2576 20.6291 10.2143 20.5065 10.1458C20.5065 10.1458 20.1386 9.84289 20.1206 9.80863L20.3135 9.85371C20.3135 9.85371 20.4902 10.0376 20.6453 10.0016C20.6453 10.0016 20.7066 9.94026 20.5651 9.82576L20.3856 9.68241L20.2757 9.61209C20.2757 9.61209 20.3568 9.57512 20.2901 9.46153C20.2901 9.46153 20.117 9.30195 20.0998 9.26769C20.0818 9.23343 19.97 9.22531 19.9295 9.20728C19.8889 9.18925 19.7131 9.16581 19.6337 9.2154L19.4399 9.24515C19.4399 9.24515 19.2569 9.26047 19.2172 9.32899C19.2172 9.32899 18.8863 9.6761 18.7745 9.75544C18.6627 9.83478 18.5609 9.86002 18.5609 9.86002C18.5609 9.86002 18.1831 10.2657 18.5798 10.6759L18.5825 10.6741Z" fill="#89525C"/>
<path d="M18.6243 10.6182C18.6243 10.6182 18.8687 10.5155 18.9092 10.5344C18.9489 10.5533 19.1689 10.5587 19.3185 10.4001C19.3185 10.4001 19.5403 10.0457 19.6134 10.0349C19.6134 10.0349 19.8063 10.08 19.8667 10.071" stroke="#080C3E" stroke-width="0.0315552" stroke-linecap="round" stroke-linejoin="round"/>
<path d="M19.9448 10.1079C19.9448 10.1079 20.0683 10.1881 20.2135 10.1656C20.2135 10.1656 20.4361 10.3297 20.5849 10.2449C20.5849 10.2449 20.6516 10.1971 20.419 10.0475C20.419 10.0475 20.0962 9.79952 20.0611 9.7301C20.0611 9.7301 19.934 9.62552 19.7834 9.61109L19.5842 9.60388" stroke="#080C3E" stroke-width="0.0315552" stroke-linecap="round" stroke-linejoin="round"/>
<path d="M20.2137 10.1656C20.2137 10.1656 20.3552 10.1197 20.1695 10.0358C20.1695 10.0358 19.9621 9.89426 19.8585 9.86C19.8585 9.86 19.6421 9.81853 19.5654 9.80591L19.3996 9.8555" stroke="#080C3E" stroke-width="0.0315552" stroke-linecap="round" stroke-linejoin="round"/>
<path d="M19.1659 9.83021L19.1631 9.73193" stroke="#080C3E" stroke-width="0.0315552" stroke-linecap="round" stroke-linejoin="round"/>
<path d="M19.2726 9.55337L19.2645 9.45239" stroke="#080C3E" stroke-width="0.0315552" stroke-linecap="round" stroke-linejoin="round"/>
<path d="M20.1583 9.80317L20.3585 9.89694C20.3585 9.89694 20.5956 10.0709 20.6533 9.96365C20.6533 9.96365 20.7155 9.96636 20.4829 9.74186L20.3855 9.66974L20.0267 9.42721C20.0267 9.42721 19.8987 9.39746 19.749 9.39476L19.5624 9.38574" stroke="#080C3E" stroke-width="0.0315552" stroke-linecap="round" stroke-linejoin="round"/>
<path d="M20.2719 9.57509C20.2719 9.57509 20.3503 9.60033 20.2494 9.42993L20.1583 9.31994C20.1583 9.31994 20.0149 9.19282 19.8761 9.17749C19.8761 9.17749 19.7291 9.18741 19.6345 9.21446C19.5398 9.2415 19.4325 9.27035 19.3965 9.27576C19.3604 9.28117 19.2612 9.28388 19.19 9.38125C19.19 9.38125 18.8817 9.71303 18.7536 9.76983C18.6265 9.82663 18.5508 9.89965 18.5508 9.89965" stroke="#080C3E" stroke-width="0.0315552" stroke-linecap="round" stroke-linejoin="round"/>
<path d="M19.3065 9.30917L19.3218 9.23975" stroke="#080C3E" stroke-width="0.0315552" stroke-linecap="round" stroke-linejoin="round"/>
<path d="M20.6391 9.9808C20.6391 9.9808 20.5048 9.87621 20.5517 9.80859" stroke="#080C3E" stroke-width="0.0315552" stroke-linecap="round" stroke-linejoin="round"/>
<path d="M20.5676 10.2531C20.5676 10.2531 20.417 10.2107 20.4684 10.1332" stroke="#080C3E" stroke-width="0.0315552" stroke-linecap="round" stroke-linejoin="round"/>
<path d="M20.1643 10.0656C20.1643 10.0656 20.1643 10.1169 20.2346 10.1332" stroke="#080C3E" stroke-width="0.0315552" stroke-linecap="round" stroke-linejoin="round"/>
<path d="M18.3266 9.88786L17.8911 9.9364L17.9599 10.5538L18.3954 10.5052L18.3266 9.88786Z" fill="#C1626E"/>
<path opacity="0.39" d="M12.9493 6.18336C12.9647 6.32401 12.7582 6.46195 12.4877 6.4926C12.2173 6.52235 11.9846 6.4331 11.9693 6.29335C11.954 6.15271 12.1605 6.01477 12.4309 5.98411C12.7014 5.95436 12.934 6.04362 12.9493 6.18336Z" fill="#6161AD"/>
<path d="M17.9032 10.702C17.7535 10.7191 17.8355 10.5857 17.8184 10.436L17.7841 10.1313C17.767 9.98165 17.6579 9.86985 17.8076 9.85272C17.9572 9.83559 18.0934 9.94468 18.1105 10.0943L18.1448 10.3991C18.1619 10.5487 18.0528 10.6849 17.9032 10.702Z" fill="#9595D8"/>
<path d="M12.4667 5.42689C12.4667 5.42689 11.328 5.32231 11.3397 6.2897C11.3487 7.0317 13.2502 9.84011 13.8091 10.6055C13.8091 10.6055 14.1725 10.9454 14.5538 10.4802C14.5538 10.4802 14.5809 9.82388 14.2275 9.34424C14.2275 9.34424 13.2042 6.82073 13.2375 6.33117C13.2375 6.33117 13.0635 5.4314 12.4676 5.42689H12.4667Z" fill="#8E2B10"/>
<path d="M13.7541 10.5145C14.2103 11.0248 15.5644 10.9166 16.1748 11.0023C16.5616 11.0564 16.9709 11.0104 17.336 11.0933C17.5173 11.1348 18.408 11.628 18.4279 11.0645C18.4279 11.0645 18.4729 9.7545 17.9167 9.52641C17.9167 9.52641 17.5416 9.39027 17.2017 9.76893C16.8609 10.1485 16.5454 9.97449 16.2082 9.89695C15.8701 9.81942 13.8361 8.94849 13.6856 9.82843C13.6405 10.0899 13.6206 10.3631 13.755 10.5136L13.7541 10.5145Z" fill="#8E2B10"/>
<path d="M18.7912 10.7228C18.7912 10.7228 18.6803 10.8382 18.4477 10.8959C18.4477 10.8959 18.106 10.7895 17.9897 9.89425C17.9897 9.89425 17.9627 9.67607 18.1646 9.60395C18.1646 9.60395 18.5009 9.55436 18.5505 9.76533C18.5505 9.76533 18.4099 10.1503 18.6443 10.5227C18.6443 10.5227 18.8273 10.6092 18.7921 10.7237L18.7912 10.7228Z" fill="#701B07"/>
<path d="M11.5295 5.57568L11.7035 5.79927C11.7035 5.79927 11.3654 6.42046 12.0371 7.14353C12.0371 7.14353 13.7528 10.1909 13.7663 10.263C13.7789 10.3342 13.9737 10.7039 14.4019 10.6011C14.9979 10.4577 17.1607 10.5993 17.5899 10.5344C18.0181 10.4703 18.2201 10.345 18.2075 10.217" stroke="white" stroke-width="0.0856498" stroke-miterlimit="10" stroke-linecap="round"/>
<path d="M18.0051 9.98899C18.0051 9.98899 17.8906 9.57967 18.2999 9.60582C18.2999 9.60582 18.7002 9.58057 18.455 9.92407C18.455 9.92407 18.4334 10.2883 18.6146 10.6183" stroke="#080C3E" stroke-width="0.0396694" stroke-linecap="round" stroke-linejoin="round"/>
<path d="M18.0197 10.1665C18.0197 10.1665 18.1567 10.8147 18.4236 10.9121C18.4236 10.9121 18.8491 10.8616 18.7562 10.6488" stroke="#080C3E" stroke-width="0.0396694" stroke-linecap="round" stroke-linejoin="round"/>
<path d="M18.3228 10.7842C18.3228 10.7842 18.5383 10.7553 18.5915 10.6697" stroke="#080C3E" stroke-width="0.0396694" stroke-linecap="round" stroke-linejoin="round"/>
<path d="M18.205 10.5912C18.205 10.5912 18.4151 10.575 18.5233 10.4362" stroke="#080C3E" stroke-width="0.0396694" stroke-linecap="round" stroke-linejoin="round"/>
<path d="M18.1225 10.3217C18.1225 10.3217 18.3506 10.2982 18.4362 10.2117" stroke="#080C3E" stroke-width="0.0396694" stroke-linecap="round" stroke-linejoin="round"/>
<path d="M18.1082 10.0034C18.1082 10.0034 18.3165 9.95557 18.4192 9.97" stroke="#080C3E" stroke-width="0.0396694" stroke-linecap="round" stroke-linejoin="round"/>
<path d="M18.0774 9.75542C18.0774 9.75542 18.3732 9.64813 18.5481 9.78247" stroke="#080C3E" stroke-width="0.0396694" stroke-linecap="round" stroke-linejoin="round"/>
<path d="M18.4237 10.9121C18.4282 11.3809 18.0513 11.3557 17.7195 11.2304C17.3211 11.0789 16.8892 11.0203 16.4655 11.005" stroke="#080C3E" stroke-width="0.0396694" stroke-linecap="round" stroke-linejoin="round"/>
<path d="M15.8892 10.9671C15.8892 10.9671 14.3159 10.8616 13.9815 10.6669" stroke="#080C3E" stroke-width="0.0396694" stroke-linecap="round" stroke-linejoin="round"/>
<path d="M14.2914 9.51202C14.2914 9.51202 14.405 9.35965 14.689 9.42366C15.1154 9.54357 15.5302 9.69774 15.953 9.82757C16.209 9.90601 16.8402 10.1909 17.0502 9.89338" stroke="#080C3E" stroke-width="0.0396694" stroke-linecap="round" stroke-linejoin="round"/>
<path d="M17.1979 9.76266C17.1979 9.76266 17.5089 9.41826 17.9174 9.53366" stroke="#080C3E" stroke-width="0.0396694" stroke-linecap="round" stroke-linejoin="round"/>
<path d="M13.7262 10.4046C13.7262 10.4046 12.1521 8.21827 11.8537 7.62683" stroke="#080C3E" stroke-width="0.0396694" stroke-linecap="round" stroke-linejoin="round"/>
<path d="M11.6297 7.20392C11.6297 7.20392 11.1275 6.40332 11.4007 5.89844" stroke="#080C3E" stroke-width="0.0396694" stroke-linecap="round" stroke-linejoin="round"/>
<path d="M13.2226 6.47011C13.2226 6.47011 13.1938 5.84442 12.8322 5.59558" stroke="#080C3E" stroke-width="0.0396694" stroke-linecap="round" stroke-linejoin="round"/>
<path d="M13.4079 7.07861C13.4079 7.07861 14.0921 9.00709 14.2707 9.31362" stroke="#080C3E" stroke-width="0.0396694" stroke-linecap="round" stroke-linejoin="round"/>
<path d="M11.4979 5.76865C11.4979 5.76865 11.6918 5.38908 12.4175 5.43867" stroke="#080C3E" stroke-width="0.0396694" stroke-linecap="round" stroke-linejoin="round"/>
<path d="M20.4795 8.81223C20.4569 9.18278 19.9575 9.45416 19.6897 9.43793C19.4219 9.4217 19.3994 9.11877 19.4219 8.74822C19.4445 8.37767 19.5031 8.07925 19.7708 8.09548C20.0386 8.11171 20.502 8.44169 20.4795 8.81223Z" fill="#447230"/>
<path d="M20.4795 8.81223C20.4569 9.18278 19.9575 9.45416 19.6897 9.43793C19.4219 9.4217 19.3994 9.11877 19.4219 8.74822C19.4445 8.37767 19.5031 8.07925 19.7708 8.09548C20.0386 8.11171 20.502 8.44169 20.4795 8.81223Z" stroke="#080C3E" stroke-width="0.0396694" stroke-linecap="round" stroke-linejoin="round"/>
<g style="mix-blend-mode:multiply" opacity="0.23">
<path d="M20.1375 8.24512C20.2232 8.35511 20.2781 8.48223 20.27 8.61567C20.2475 8.98621 19.748 9.25759 19.4803 9.24136C19.4703 9.24136 19.4604 9.23865 19.4514 9.23775C19.4884 9.35496 19.5605 9.43069 19.6903 9.4379C19.9581 9.45413 20.4576 9.18276 20.4801 8.81221C20.4936 8.58772 20.3295 8.37855 20.1384 8.24512H20.1375Z" fill="#412855"/>
</g>
<path d="M20.4793 8.81226C20.4793 8.81226 20.8823 8.81496 20.9048 9.03585C20.9283 9.25673 21.0554 10.1799 21.0554 10.1799L20.7705 10.0528L20.6749 9.20534C20.6749 9.20534 20.3945 9.00519 20.2115 8.99437L20.4784 8.81316L20.4793 8.81226Z" fill="#447230"/>
<path d="M20.4793 8.81226C20.4793 8.81226 20.8823 8.81496 20.9048 9.03585C20.9283 9.25673 21.0554 10.1799 21.0554 10.1799L20.7705 10.0528L20.6749 9.20534C20.6749 9.20534 20.3945 9.00519 20.2115 8.99437L20.4784 8.81316L20.4793 8.81226Z" stroke="#080C3E" stroke-width="0.0396694" stroke-linecap="round" stroke-linejoin="round"/>
<path d="M22.0156 10.7755C22.0156 10.2006 21.5496 9.73462 20.9747 9.73462C20.3999 9.73462 19.9339 10.2006 19.9339 10.7755C19.9339 11.3503 20.3999 11.8164 20.9747 11.8164C21.5496 11.8164 22.0156 11.3503 22.0156 10.7755Z" fill="#EAA941"/>
<path d="M22.0156 10.7755C22.0156 10.2006 21.5496 9.73462 20.9747 9.73462C20.3999 9.73462 19.9339 10.2006 19.9339 10.7755C19.9339 11.3503 20.3999 11.8164 20.9747 11.8164C21.5496 11.8164 22.0156 11.3503 22.0156 10.7755Z" stroke="#080C3E" stroke-width="0.0396694" stroke-linecap="round" stroke-linejoin="round"/>
<path d="M21.0816 17.9561L18.742 21.538L12.5284 21.4289V22.8543H19.9844L21.8849 18.8333L21.0816 17.9561Z" fill="#B7B6B6"/>
<path d="M21.0816 17.9561L18.742 21.538L12.5284 21.4289V22.8543H19.9844L21.8849 18.8333L21.0816 17.9561Z" stroke="#080C3E" stroke-width="0.029752" stroke-linecap="round" stroke-linejoin="round"/>
<path d="M6.35226 16.2341L5.21898 18.3546L10.4824 22.5947L11.9447 24.2761C12.785 25.2994 13.9913 25.1164 13.9913 25.1164H19.0347C20.8253 25.1534 21.2643 23.654 21.2643 23.654L23.0549 20.4742C23.713 19.4509 25.5035 19.0858 25.5035 19.0858C25.1745 17.1483 20.7522 12.2148 20.7522 12.2148L21.1904 12.1779V9.47314H19.802C19.0708 9.47314 19.4368 11.1176 19.4368 11.1176L21.0813 18.3176C21.3374 19.1948 21.1913 19.5239 21.1913 19.5239L19.8759 21.8626C19.5468 22.6299 19.3277 22.6668 19.3277 22.6668H13.6622C12.9311 22.5208 12.895 21.8996 12.895 21.8996C13.005 18.3176 14.2834 17.7334 14.2834 17.7334V16.235H6.35226V16.2341Z" fill="white"/>
<path d="M6.61908 16.8237C7.087 16.8048 7.55131 16.7948 8.01923 16.8147C9.41938 16.8751 11.182 17.1293 11.9393 18.479C12.354 19.2183 12.2485 20.0414 12.3847 20.8456C12.437 21.1558 12.5262 21.5479 12.821 21.7192C12.8472 21.7346 12.8733 21.7472 12.9004 21.758C13.0392 18.3032 14.2834 17.7316 14.2834 17.7316V16.2332H6.35222L6.03847 16.821C6.23411 16.8381 6.43606 16.8309 6.61908 16.8237Z" fill="url(#paint1_linear_486_6515)"/>
<path d="M16.6161 20.1406C16.6161 20.1406 16.0147 20.1694 15.8488 20.1135L15.7956 20.4624C15.7956 20.4624 16.5674 20.6662 16.6999 20.2938L16.617 20.1406H16.6161Z" fill="#CC5F3A"/>
<path d="M15.876 19.2363L15.8489 20.1136C15.8489 20.1136 16.5341 20.2776 16.6162 20.1406L16.7532 19.3184L15.876 19.2363Z" fill="#89525C"/>
<g style="mix-blend-mode:multiply" opacity="0.2">
<path d="M16.0815 19.7033C16.2465 19.4599 16.4809 19.4852 16.7198 19.5167L16.7532 19.3184L15.876 19.2363L15.8489 20.1136C15.8489 20.1136 15.8967 20.1253 15.967 20.1388C15.9706 19.9819 15.9959 19.8296 16.0815 19.7033Z" fill="#BF626E"/>
</g>
<path d="M15.7037 20.4155C15.7037 20.4155 15.6866 20.5733 16.2365 20.4994C16.2365 20.4994 16.6332 20.5571 16.6991 20.2938C16.6991 20.2938 17.1201 20.4435 17.3085 20.6355C17.496 20.8285 18.2606 21.1611 18.2606 21.1611C18.2606 21.1611 18.587 21.4082 18.2984 21.7372C18.2984 21.7372 17.8143 22.1069 17.1282 21.9284C17.1282 21.9284 16.3574 21.4523 16.122 21.4118C15.8867 21.3703 15.4945 21.3865 15.5009 21.1684C15.5009 21.1684 15.4828 20.4814 15.7046 20.4155H15.7037Z" fill="white"/>
<path d="M15.5629 20.6049C15.5936 20.5102 15.6378 20.4354 15.7036 20.4155C15.7036 20.4155 15.6865 20.5733 16.2364 20.4994C16.2364 20.4994 16.6331 20.5571 16.6989 20.2938C16.6989 20.2938 16.68 20.3146 16.7792 20.3506C16.5772 20.6743 15.8884 20.8032 15.562 20.604L15.5629 20.6049Z" fill="#5AC268"/>
<path d="M16.4265 21.4767C16.6267 21.5749 16.8701 21.6777 17.0802 21.7481C17.2307 21.7985 17.5832 21.7481 17.6445 21.5885C17.7031 21.4343 17.723 21.3135 17.8618 21.2125C18.0106 21.1043 17.9078 21.0719 18.0791 21.0791C18.1873 21.1296 18.2612 21.162 18.2612 21.162C18.2612 21.162 18.5876 21.4091 18.2991 21.7381C18.2991 21.7381 17.8149 22.1078 17.1288 21.9293C17.1288 21.9293 16.2796 21.5858 16.0442 21.5452C15.8089 21.5037 15.4943 21.3874 15.5006 21.1692C15.5006 21.1692 15.5006 21.153 15.5006 21.1269C15.8189 21.2522 16.1182 21.3252 16.4274 21.4776L16.4265 21.4767Z" fill="#5AC268"/>
<path d="M18.2986 21.7373C18.5979 21.3388 18.0552 21.0584 18.0552 21.0584C17.8496 20.9547 17.3087 20.6356 17.3087 20.6356C17.0779 20.4372 16.7344 20.2722 16.7344 20.2722C16.2854 20.7627 15.7039 20.4147 15.7039 20.4147" stroke="#080C3E" stroke-width="0.0324568" stroke-linecap="round" stroke-linejoin="round"/>
<path d="M18.0938 21.0909C18.0938 21.0909 17.6512 21.0097 17.6521 21.6201" stroke="#080C3E" stroke-width="0.0324568" stroke-linecap="round" stroke-linejoin="round"/>
<path d="M18.3702 21.5822C18.0015 21.9068 17.2937 21.7887 17.2937 21.7887L16.0442 21.3496L15.5005 21.1693L15.5086 21.3821L16.1217 21.594L17.1459 21.9663C17.1459 21.9663 17.8013 22.1115 18.1899 21.8365" stroke="#080C3E" stroke-width="0.0324568" stroke-linecap="round" stroke-linejoin="round"/>
<path d="M17.45 20.7366C17.45 20.7366 17.1912 20.7366 17.084 20.9746" stroke="#080C3E" stroke-width="0.0351615" stroke-linecap="round" stroke-linejoin="round"/>
<path d="M17.2526 20.5499C17.2526 20.5499 16.9939 20.5499 16.8866 20.7879" stroke="#080C3E" stroke-width="0.0351615" stroke-linecap="round" stroke-linejoin="round"/>
<path d="M15.5148 20.9863L15.6329 20.5707C15.6329 20.5707 15.9484 20.8691 16.5399 20.6365" stroke="#080C3E" stroke-width="0.0351615" stroke-linecap="round" stroke-linejoin="round"/>
<path d="M16.6597 12.8125C15.0323 12.653 13.3924 12.1922 11.7596 12.451C11.7831 12.424 11.8119 12.3888 11.8471 12.3392L8.0929 12.2112C8.0929 12.2112 6.82078 15.0412 9.44617 15.4686C12.0707 15.8959 15.5877 14.5931 16.0701 14.4408C16.0701 14.4408 15.1856 15.0142 15.8014 19.4734L16.7273 19.5527C16.9752 18.6376 17.188 17.6991 17.3737 16.7687C17.536 15.9554 17.7848 15.1539 17.8101 14.3191C17.8389 13.3481 17.6135 12.9054 16.6597 12.8125Z" fill="#EAA941"/>
<path style="mix-blend-mode:multiply" opacity="0.84" d="M16.6597 12.8125C15.0323 12.653 13.3924 12.1922 11.7596 12.451C11.7831 12.424 11.8119 12.3888 11.8471 12.3392L8.0929 12.2112C8.0929 12.2112 6.82078 15.0412 9.44617 15.4686C12.0707 15.8959 15.5877 14.5931 16.0701 14.4408C16.0701 14.4408 15.1856 15.0142 15.8014 19.4734L16.7273 19.5527C16.9752 18.6376 17.188 17.6991 17.3737 16.7687C17.536 15.9554 17.7848 15.1539 17.8101 14.3191C17.8389 13.3481 17.6135 12.9054 16.6597 12.8125Z" fill="url(#paint2_linear_486_6515)"/>
<path d="M6.11186 26.2101C7.84216 26.2101 9.24484 24.8074 9.24484 23.0771C9.24484 21.3468 7.84216 19.9441 6.11186 19.9441C4.38156 19.9441 2.97888 21.3468 2.97888 23.0771C2.97888 24.8074 4.38156 26.2101 6.11186 26.2101Z" fill="#262940"/>
<path style="mix-blend-mode:multiply" opacity="0.41" d="M4.01944 24.9632C3.71741 24.4258 3.70659 23.719 4.2836 23.3773C4.8543 23.0401 5.62244 23.069 6.25805 23.1212C6.84498 23.1699 7.4292 23.261 8.01973 23.2547C8.38487 23.2511 8.88254 23.3016 9.24227 23.1411C9.24227 23.1194 9.24408 23.0987 9.24408 23.0771C9.24408 21.3469 7.84122 19.9441 6.1111 19.9441C4.38097 19.9441 2.97812 21.3469 2.97812 23.0771C2.97812 24.6981 4.20877 26.0315 5.78743 26.1938C5.10945 25.9423 4.38368 25.6123 4.01944 24.9632Z" fill="url(#paint3_linear_486_6515)"/>
<path d="M6.11186 26.2101C7.84216 26.2101 9.24484 24.8074 9.24484 23.0771C9.24484 21.3468 7.84216 19.9441 6.11186 19.9441C4.38156 19.9441 2.97888 21.3468 2.97888 23.0771C2.97888 24.8074 4.38156 26.2101 6.11186 26.2101Z" stroke="#080C3E" stroke-width="0.0342599" stroke-linecap="round" stroke-linejoin="round"/>
<path d="M5.95811 25.0082C6.93953 25.0082 7.73512 24.2126 7.73512 23.2312C7.73512 22.2498 6.93953 21.4542 5.95811 21.4542C4.9767 21.4542 4.18111 22.2498 4.18111 23.2312C4.18111 24.2126 4.9767 25.0082 5.95811 25.0082Z" fill="#3B415B"/>
<path d="M5.95811 24.7396C6.79114 24.7396 7.46644 24.0643 7.46644 23.2312C7.46644 22.3982 6.79114 21.7229 5.95811 21.7229C5.12507 21.7229 4.44977 22.3982 4.44977 23.2312C4.44977 24.0643 5.12507 24.7396 5.95811 24.7396Z" fill="#5A617A"/>
<path style="mix-blend-mode:multiply" opacity="0.03" d="M4.01944 24.9632C3.71741 24.4258 3.70659 23.719 4.2836 23.3773C4.8543 23.0401 5.62244 23.069 6.25805 23.1212C6.84498 23.1699 7.4292 23.261 8.01973 23.2547C8.38487 23.2511 8.88254 23.3016 9.24227 23.1411C9.24227 23.1194 9.24408 23.0987 9.24408 23.0771C9.24408 21.3469 7.84122 19.9441 6.1111 19.9441C4.38097 19.9441 2.97812 21.3469 2.97812 23.0771C2.97812 24.6981 4.20877 26.0315 5.78743 26.1938C5.10945 25.9423 4.38368 25.6123 4.01944 24.9632Z" fill="url(#paint4_linear_486_6515)"/>
<path d="M5.95811 24.7396C6.79114 24.7396 7.46644 24.0643 7.46644 23.2312C7.46644 22.3982 6.79114 21.7229 5.95811 21.7229C5.12507 21.7229 4.44977 22.3982 4.44977 23.2312C4.44977 24.0643 5.12507 24.7396 5.95811 24.7396Z" stroke="#080C3E" stroke-width="0.0342599" stroke-linecap="round" stroke-linejoin="round"/>
<path d="M5.95811 25.0082C6.93953 25.0082 7.73512 24.2126 7.73512 23.2312C7.73512 22.2498 6.93953 21.4542 5.95811 21.4542C4.9767 21.4542 4.18111 22.2498 4.18111 23.2312C4.18111 24.2126 4.9767 25.0082 5.95811 25.0082Z" stroke="#080C3E" stroke-width="0.0342599" stroke-linecap="round" stroke-linejoin="round"/>
<path d="M26.5332 26.2101C28.2635 26.2101 29.6661 24.8074 29.6661 23.0771C29.6661 21.3468 28.2635 19.9441 26.5332 19.9441C24.8029 19.9441 23.4002 21.3468 23.4002 23.0771C23.4002 24.8074 24.8029 26.2101 26.5332 26.2101Z" fill="#262940"/>
<path style="mix-blend-mode:multiply" opacity="0.41" d="M24.44 24.9632C24.138 24.4258 24.1272 23.719 24.7042 23.3773C25.2749 23.0401 26.043 23.069 26.6786 23.1212C27.2656 23.1699 27.8498 23.261 28.4403 23.2547C28.8055 23.2511 29.3031 23.3016 29.6629 23.1411C29.6629 23.1194 29.6647 23.0987 29.6647 23.0771C29.6647 21.3469 28.2618 19.9441 26.5317 19.9441C24.8015 19.9441 23.3987 21.3469 23.3987 23.0771C23.3987 24.6981 24.6293 26.0315 26.208 26.1938C25.53 25.9423 24.8043 25.6123 24.44 24.9632Z" fill="url(#paint5_linear_486_6515)"/>
<path d="M26.5332 26.2101C28.2635 26.2101 29.6661 24.8074 29.6661 23.0771C29.6661 21.3468 28.2635 19.9441 26.5332 19.9441C24.8029 19.9441 23.4002 21.3468 23.4002 23.0771C23.4002 24.8074 24.8029 26.2101 26.5332 26.2101Z" stroke="#080C3E" stroke-width="0.0342599" stroke-linecap="round" stroke-linejoin="round"/>
<path d="M26.3787 25.0082C27.3601 25.0082 28.1557 24.2126 28.1557 23.2312C28.1557 22.2498 27.3601 21.4542 26.3787 21.4542C25.3973 21.4542 24.6017 22.2498 24.6017 23.2312C24.6017 24.2126 25.3973 25.0082 26.3787 25.0082Z" fill="#3B415B"/>
<path d="M26.3787 24.7396C27.2117 24.7396 27.887 24.0643 27.887 23.2312C27.887 22.3982 27.2117 21.7229 26.3787 21.7229C25.5456 21.7229 24.8703 22.3982 24.8703 23.2312C24.8703 24.0643 25.5456 24.7396 26.3787 24.7396Z" fill="#5A617A"/>
<path style="mix-blend-mode:multiply" opacity="0.03" d="M24.44 24.9632C24.138 24.4258 24.1272 23.719 24.7042 23.3773C25.2749 23.0401 26.043 23.069 26.6786 23.1212C27.2656 23.1699 27.8498 23.261 28.4403 23.2547C28.8055 23.2511 29.3031 23.3016 29.6629 23.1411C29.6629 23.1194 29.6647 23.0987 29.6647 23.0771C29.6647 21.3469 28.2618 19.9441 26.5317 19.9441C24.8015 19.9441 23.3987 21.3469 23.3987 23.0771C23.3987 24.6981 24.6293 26.0315 26.208 26.1938C25.53 25.9423 24.8043 25.6123 24.44 24.9632Z" fill="url(#paint6_linear_486_6515)"/>
<path d="M26.3787 24.7396C27.2117 24.7396 27.887 24.0643 27.887 23.2312C27.887 22.3982 27.2117 21.7229 26.3787 21.7229C25.5456 21.7229 24.8703 22.3982 24.8703 23.2312C24.8703 24.0643 25.5456 24.7396 26.3787 24.7396Z" stroke="#080C3E" stroke-width="0.0342599" stroke-linecap="round" stroke-linejoin="round"/>
<path d="M26.3787 25.0082C27.3601 25.0082 28.1557 24.2126 28.1557 23.2312C28.1557 22.2498 27.3601 21.4542 26.3787 21.4542C25.3973 21.4542 24.6017 22.2498 24.6017 23.2312C24.6017 24.2126 25.3973 25.0082 26.3787 25.0082Z" stroke="#080C3E" stroke-width="0.0342599" stroke-linecap="round" stroke-linejoin="round"/>
<path d="M6.35226 16.234L5.21898 18.3545L10.4824 22.5946L11.9447 24.2761C12.785 25.2993 13.9913 25.1163 13.9913 25.1163H19.0347C20.8253 25.1533 21.2643 23.654 21.2643 23.654L23.0549 20.4741C23.713 19.4508 25.5035 19.0857 25.5035 19.0857C25.2322 17.4863 22.1686 13.8421 21.1102 12.6214C20.8866 12.3635 20.7522 12.2139 20.7522 12.2139L21.1904 12.1769V9.47217H19.802C19.0708 9.47217 19.4368 11.1166 19.4368 11.1166L21.0813 18.3166C21.3374 19.1939 21.1913 19.5229 21.1913 19.5229L19.8759 21.8616C19.5468 22.6289 19.3277 22.6658 19.3277 22.6658H13.6622C12.9311 22.5198 12.895 21.8986 12.895 21.8986C13.005 18.3166 14.2834 17.7324 14.2834 17.7324V16.234H6.35226Z" stroke="#080C3E" stroke-width="0.0396694" stroke-linecap="round" stroke-linejoin="round"/>
<path d="M13.5369 14.2605H6.67053C5.93558 14.2605 5.3398 14.8563 5.3398 15.5912V15.5975C5.3398 16.3325 5.93558 16.9283 6.67053 16.9283H13.5369C14.2719 16.9283 14.8677 16.3325 14.8677 15.5975V15.5912C14.8677 14.8563 14.2719 14.2605 13.5369 14.2605Z" fill="#4E5175"/>
<path d="M13.5369 14.2605H6.67053C5.93558 14.2605 5.3398 14.8563 5.3398 15.5912V15.5975C5.3398 16.3325 5.93558 16.9283 6.67053 16.9283H13.5369C14.2719 16.9283 14.8677 16.3325 14.8677 15.5975V15.5912C14.8677 14.8563 14.2719 14.2605 13.5369 14.2605Z" stroke="#080C3E" stroke-width="0.029752" stroke-linecap="round" stroke-linejoin="round"/>
<g style="mix-blend-mode:multiply" opacity="0.41">
<path d="M13.7572 15.502H6.88993C6.35079 15.502 5.88377 15.1756 5.6755 14.7113C5.46724 14.9466 5.34012 15.2541 5.34012 15.5903V15.5976C5.34012 16.3296 5.93876 16.9283 6.67085 16.9283H13.5382C14.2702 16.9283 14.8689 16.3296 14.8689 15.5976V15.5903C14.8689 15.3983 14.8265 15.2153 14.7526 15.0503C14.5083 15.3262 14.153 15.502 13.7581 15.502H13.7572Z" fill="url(#paint7_linear_486_6515)"/>
</g>
<path d="M15.8279 20.5462C15.8279 20.5462 15.2266 20.5751 15.0607 20.5192L15.0075 20.8681C15.0075 20.8681 15.7792 21.0718 15.9118 20.6995L15.8288 20.5462H15.8279Z" fill="#CC5F3A"/>
<path d="M15.0878 19.642L15.0608 20.5192C15.0608 20.5192 15.746 20.6833 15.828 20.5462L15.9651 19.724L15.0878 19.642Z" fill="#89525C"/>
<g style="mix-blend-mode:multiply" opacity="0.2">
<path d="M15.2934 20.109C15.4584 19.8656 15.6928 19.8908 15.9317 19.9224L15.9651 19.724L15.0878 19.642L15.0608 20.5192C15.0608 20.5192 15.1086 20.5309 15.1789 20.5444C15.1825 20.3876 15.2077 20.2352 15.2934 20.109Z" fill="#BF626E"/>
</g>
<path d="M14.9154 20.8213C14.9154 20.8213 14.8982 20.9791 15.4482 20.9051C15.4482 20.9051 15.8449 20.9628 15.9107 20.6996C15.9107 20.6996 16.3317 20.8492 16.5202 21.0413C16.7077 21.2342 17.4722 21.5669 17.4722 21.5669C17.4722 21.5669 17.7986 21.8139 17.5101 22.143C17.5101 22.143 17.026 22.5127 16.3399 22.3341C16.3399 22.3341 15.569 21.8581 15.3337 21.8175C15.0984 21.7761 14.7062 21.7923 14.7125 21.5741C14.7125 21.5741 14.6945 20.8871 14.9163 20.8213H14.9154Z" fill="white"/>
<path d="M14.7746 21.0106C14.8053 20.916 14.8494 20.8411 14.9152 20.8213C14.9152 20.8213 14.8981 20.9791 15.4481 20.9051C15.4481 20.9051 15.8448 20.9628 15.9106 20.6996C15.9106 20.6996 15.8917 20.7203 15.9908 20.7564C15.7889 21.0801 15.1001 21.209 14.7737 21.0097L14.7746 21.0106Z" fill="#5AC268"/>
<path d="M15.6382 21.8824C15.8383 21.9807 16.0817 22.0835 16.2918 22.1538C16.4424 22.2043 16.7047 22.1538 16.766 21.9942C16.8246 21.8401 16.8445 21.7193 16.9833 21.6183C17.1321 21.5101 17.1195 21.4776 17.2908 21.4848C17.399 21.5353 17.4729 21.5678 17.4729 21.5678C17.4729 21.5678 17.7993 21.8148 17.5107 22.1439C17.5107 22.1439 17.0266 22.5135 16.3405 22.335C16.3405 22.335 15.4912 21.9915 15.2559 21.951C15.0206 21.9095 14.7059 21.7932 14.7123 21.575C14.7123 21.575 14.7123 21.5588 14.7123 21.5326C15.0305 21.6579 15.3298 21.731 15.6391 21.8833L15.6382 21.8824Z" fill="#5AC268"/>
<path d="M17.5103 22.1439C17.8096 21.7454 17.2668 21.465 17.2668 21.465C17.0613 21.3613 16.5203 21.0422 16.5203 21.0422C16.2895 20.8438 15.946 20.6788 15.946 20.6788C15.497 21.1693 14.9155 20.8213 14.9155 20.8213" stroke="#080C3E" stroke-width="0.0324568" stroke-linecap="round" stroke-linejoin="round"/>
<path d="M17.3056 21.4965C17.3056 21.4965 16.8467 21.4172 16.8449 22.0285" stroke="#080C3E" stroke-width="0.0351615" stroke-linecap="round" stroke-linejoin="round"/>
<path d="M17.5819 21.9879C17.2131 22.3124 16.5054 22.1943 16.5054 22.1943L15.2558 21.7553L14.7122 21.575L14.7203 21.7877L15.3333 21.9996L16.3575 22.3719C16.3575 22.3719 17.013 22.5171 17.4016 22.2421" stroke="#080C3E" stroke-width="0.0324568" stroke-linecap="round" stroke-linejoin="round"/>
<path d="M16.8418 21.2324C16.8418 21.2324 16.583 21.2324 16.4757 21.4704" stroke="#080C3E" stroke-width="0.0351615" stroke-linecap="round" stroke-linejoin="round"/>
<path d="M16.5543 21.0458C16.5543 21.0458 16.2956 21.0458 16.1883 21.2838" stroke="#080C3E" stroke-width="0.0351615" stroke-linecap="round" stroke-linejoin="round"/>
<path d="M14.7272 21.3919L14.8453 20.9763C14.8453 20.9763 15.1608 21.2747 15.7523 21.0421" stroke="#080C3E" stroke-width="0.0351615" stroke-linecap="round" stroke-linejoin="round"/>
<path d="M12.1634 4.94002C12.1634 4.94002 10.3188 4.72995 9.28199 7.25437C9.28199 7.25437 7.50138 10.9058 8.07027 11.2267L11.7343 11.6928C11.9335 11.7181 12.1211 11.591 12.1688 11.3953C12.2987 10.8652 12.5845 9.85632 12.9785 9.35053C12.9785 9.35053 13.7673 8.2461 13.4067 6.62146C13.4067 6.62146 13.0416 4.64791 12.1643 4.94002H12.1634Z" fill="#CC5F3A"/>
<path style="mix-blend-mode:multiply" opacity="0.32" d="M13.2719 6.87117C13.2719 6.87117 13.3206 6.70708 13.1331 6.2626C13.0718 6.24547 13.0096 6.00926 12.9474 5.99393C12.9501 6.02278 12.932 5.94435 12.8942 5.94435C12.8464 5.94435 12.832 5.89476 12.85 5.8623C12.8256 5.85689 12.6913 5.85148 12.667 5.84698C12.2324 5.76764 11.8979 5.93263 11.6563 6.25629C11.1343 6.95682 11.9069 7.99453 11.8745 8.80866C11.8528 9.35501 11.4805 10.0682 10.9954 10.4315C10.2372 10.9995 8.93715 10.9165 8.01033 10.4847C7.89944 10.8381 7.92288 11.1239 8.20056 11.2429L11.897 11.6261C12.1648 11.6531 12.2315 11.2817 12.2802 11.0175C12.3929 10.409 12.6634 9.89055 12.8437 9.575C12.8437 9.575 13.491 7.7475 13.2719 6.87027V6.87117Z" fill="url(#paint8_linear_486_6515)"/>
<path d="M8.07061 11.1807C8.07061 11.1807 7.7785 11.6396 7.99758 11.7541L11.7256 12.213C11.7256 12.213 12.1557 11.9326 12.0096 11.6269L8.07061 11.1807Z" fill="#8E2B10"/>
<path d="M16.1151 12.9451C14.3903 12.6476 13.2571 12.1968 11.6288 12.3158C11.655 12.2915 11.6856 12.259 11.7253 12.2131L7.99726 11.7542C7.99726 11.7542 6.57728 14.2668 9.15398 14.925C11.7307 15.5831 14.5202 14.8844 15.0142 14.7744C15.0142 14.7744 14.8646 14.8646 15.0746 19.8233L15.9915 19.9729L17.1275 14.7275C17.4187 13.8729 17.059 13.1074 16.1151 12.9442V12.9451Z" fill="#EAA941"/>
<path style="mix-blend-mode:multiply" opacity="0.36" d="M14.6384 14.4101C14.3337 14.3624 13.9749 14.4751 13.6746 14.5265C13.4736 14.5607 13.2816 14.5778 13.0787 14.5823C12.1347 14.604 11.1908 14.6491 10.2477 14.5553C9.48502 14.4787 8.35534 14.3362 7.94332 13.5789C7.79726 13.3102 7.73956 12.8198 7.94332 12.5655C8.18133 12.2689 7.99651 11.92 8.98915 12.1625C9.52378 12.2932 10.09 12.2085 10.639 12.2175C10.9753 12.2229 11.3387 12.25 11.6822 12.2085L7.99651 11.755C7.99651 11.755 6.57653 14.2677 9.15323 14.9258C11.5857 15.547 14.2066 14.9592 14.908 14.7996C14.8837 14.6121 14.8151 14.439 14.6375 14.411L14.6384 14.4101Z" fill="url(#paint9_linear_486_6515)"/>
<path d="M9.04012 12.8054C9.04012 12.8054 8.04297 12.9704 7.60841 12.9244L7.69136 13.102C7.69136 13.102 8.80481 13.1183 9.01938 13.0056L9.0879 13.3166" stroke="#080C3E" stroke-width="0.029752" stroke-linecap="round" stroke-linejoin="round"/>
<path d="M12.505 3.98608C12.505 3.98608 12.3121 4.75333 12.1219 4.82726C11.9316 4.90028 12.7611 5.66933 13.1001 5.74686L13.3381 5.0229L12.5041 3.98608H12.505Z" fill="#89525C"/>
<path style="mix-blend-mode:multiply" opacity="0.61" d="M13.2167 5.48458L13.3385 5.02387L12.5045 3.98706C12.5045 3.98706 12.4657 4.14213 12.4053 4.31884C12.5099 4.78225 12.8209 5.22943 13.2158 5.48458H13.2167Z" fill="url(#paint10_linear_486_6515)"/>
<path d="M15.263 1.89723C15.263 1.89723 15.5767 2.89347 15.5019 3.32082C15.5019 3.32082 15.8391 3.87439 15.7444 4.18273C15.6497 4.49107 15.4054 4.32698 15.2513 4.27919C15.2513 4.27919 15.0042 5.51976 14.3767 5.57656C13.8466 5.62435 12.2319 5.07078 12.5159 3.69948C12.5159 3.69948 12.0146 1.29498 13.3084 1.29768C14.6021 1.30039 14.9375 1.12187 15.263 1.89633V1.89723Z" fill="#89525C"/>
<g style="mix-blend-mode:multiply" opacity="0.2">
<path d="M12.4466 3.95633C13.2923 4.90208 14.1605 5.02199 14.1948 3.09622C14.1948 3.07008 14.2263 3.05385 14.2516 3.05295C14.6906 3.04393 15.0702 2.88525 15.4696 2.74641C15.3984 2.32898 15.2622 1.89532 15.2622 1.89532C14.9368 1.11997 14.6014 1.29848 13.3076 1.29668C12.0138 1.29397 12.5151 3.69848 12.5151 3.69848C12.4845 3.78773 12.4619 3.87248 12.4457 3.95542L12.4466 3.95633Z" fill="#BF626E"/>
</g>
<path d="M13.2746 3.42089C13.2746 3.42089 13.4991 3.36048 13.5153 3.67604" stroke="#080C3E" stroke-width="0.0504883" stroke-linecap="round" stroke-linejoin="round"/>
<path d="M13.3895 3.60205C13.3895 3.60205 13.2904 3.6327 13.2904 3.77966" stroke="#080C3E" stroke-width="0.0504883" stroke-linecap="round" stroke-linejoin="round"/>
<path d="M13.5881 3.22704C13.5881 3.22704 12.9146 2.98272 13.076 3.85003" stroke="#080C3E" stroke-width="0.0504883" stroke-linecap="round" stroke-linejoin="round"/>
<path d="M15.3178 3.28202C15.1808 3.06654 14.8725 3.07105 14.6453 3.1017C14.547 3.11613 14.5254 2.96917 14.6236 2.95475C14.8364 2.94393 15.0645 2.95926 15.2457 3.08457C15.3052 3.12875 15.3575 3.17924 15.3891 3.25678C15.3972 3.27571 15.3882 3.29825 15.3683 3.30546C15.3476 3.31448 15.326 3.30276 15.3178 3.28202Z" fill="#24181A"/>
<path d="M15.1226 3.45783C15.0919 3.557 14.9891 3.70125 14.8873 3.67871C14.642 3.62462 14.7322 3.4461 14.7629 3.34693C14.7935 3.24776 14.899 3.19186 14.9982 3.22161C15.0973 3.25227 15.1532 3.35775 15.1226 3.45692V3.45783Z" fill="white"/>
<path d="M15.1417 3.25584C15.1156 3.22699 15.0822 3.20445 15.0426 3.19273C14.9245 3.15667 14.8 3.22248 14.764 3.34059C14.7595 3.35501 14.7568 3.36944 14.755 3.38477C14.8677 3.29731 14.9984 3.25494 15.1408 3.25674L15.1417 3.25584Z" fill="#66323D"/>
<path d="M15.0974 3.53628C15.1271 3.44702 15.11 3.36137 15.0577 3.34334C15.0063 3.32621 14.9396 3.38391 14.9099 3.47227C14.8801 3.56152 14.8972 3.64717 14.9495 3.66521C15.0009 3.68234 15.0676 3.62463 15.0974 3.53628Z" fill="#24181A"/>
<path d="M15.1319 3.28464C15.1319 3.28464 14.9696 3.16293 14.6964 3.38922" stroke="#080C3E" stroke-width="0.0504883" stroke-linecap="round" stroke-linejoin="round"/>
<path d="M13.3989 5.43766C13.3989 5.43766 13.3728 5.6324 13.1843 5.85779C13.1843 5.85779 12.7696 6.00024 12.0051 5.19874C12.0051 5.19874 11.8202 5.0022 11.9681 4.78492C11.9681 4.78492 12.0357 4.47748 12.2368 4.64968C12.2368 4.64968 12.6055 5.14825 13.1068 5.3466C13.1068 5.3466 13.3502 5.29972 13.398 5.43856L13.3989 5.43766Z" fill="#8E2B10"/>
<path d="M13.308 5.31231C13.308 5.31231 13.1511 5.40337 12.767 5.10314C12.767 5.10314 12.1792 4.48376 12.0521 4.71546C12.0521 4.71546 11.7888 4.97782 12.089 5.25551C12.089 5.25551 12.8166 6.01103 13.2989 5.85596L13.4495 5.59089" stroke="#080C3E" stroke-width="0.0369646" stroke-linecap="round" stroke-linejoin="round"/>
<path d="M13.3412 5.40881C13.3412 5.40881 13.425 5.59274 13.2456 5.82534" stroke="#080C3E" stroke-width="0.0396694" stroke-linecap="round" stroke-linejoin="round"/>
<path d="M13.1542 5.38989C13.1542 5.38989 13.138 5.56209 13.0145 5.75052" stroke="#080C3E" stroke-width="0.0396694" stroke-linecap="round" stroke-linejoin="round"/>
<path d="M12.9236 5.31409C12.9236 5.31409 12.8452 5.49981 12.7225 5.62964" stroke="#080C3E" stroke-width="0.0396694" stroke-linecap="round" stroke-linejoin="round"/>
<path d="M12.7878 5.15991C12.7878 5.15991 12.639 5.16532 12.575 5.29515C12.511 5.42588 12.4794 5.49079 12.4794 5.49079" stroke="#080C3E" stroke-width="0.0396694" stroke-linecap="round" stroke-linejoin="round"/>
<path d="M12.6 4.97778C12.6 4.97778 12.4305 5.00663 12.3061 5.25367" stroke="#080C3E" stroke-width="0.0396694" stroke-linecap="round" stroke-linejoin="round"/>
<path d="M12.3813 4.80286C12.3813 4.80286 12.1838 4.82449 12.1117 5.09948" stroke="#080C3E" stroke-width="0.0396694" stroke-linecap="round" stroke-linejoin="round"/>
<path d="M12.2036 4.69653C12.2036 4.69653 12.1161 4.74702 12.0269 4.97422" stroke="#080C3E" stroke-width="0.0396694" stroke-linecap="round" stroke-linejoin="round"/>
<path d="M12.1171 3.78242C12.32 4.15207 12.8213 4.62449 13.1576 4.08265C13.3803 3.72292 13.6661 3.41368 13.4632 3.04403C13.2603 2.67438 12.7942 2.54005 12.4228 2.7438C12.0513 2.94756 11.9143 3.41277 12.1171 3.78242Z" fill="#140D0F"/>
<path d="M15.8344 2.85193C15.9237 2.73833 15.8434 2.4931 15.6054 2.44351C15.4476 2.41015 15.4503 2.36688 15.3611 2.48048C15.2718 2.59408 15.3052 2.76988 15.4359 2.87176C15.5666 2.97454 15.7443 2.96552 15.8344 2.85193Z" fill="#140D0F"/>
<path d="M15.0142 2.85202C15.1034 2.73842 15.1773 2.51032 14.9393 2.46073C14.7816 2.42738 14.631 2.36697 14.5408 2.48057C14.4516 2.59417 14.4849 2.76997 14.6157 2.87185C14.7464 2.97463 14.924 2.96562 15.0142 2.85202Z" fill="#140D0F"/>
<path d="M15.4044 2.85202C15.4937 2.73842 15.5676 2.51032 15.3296 2.46073C15.1718 2.42738 15.0212 2.36697 14.9311 2.48057C14.8418 2.59417 14.8752 2.76997 15.0059 2.87185C15.1366 2.97373 15.3142 2.96562 15.4044 2.85202Z" fill="#140D0F"/>
<path d="M14.4273 2.97006C14.5166 2.85646 14.5905 2.62836 14.3525 2.57878C14.1947 2.54542 14.0441 2.48501 13.954 2.59861C13.8647 2.71221 13.8981 2.88802 14.0288 2.9899C14.1595 3.09267 14.3372 3.08366 14.4273 2.97006Z" fill="#140D0F"/>
<path d="M14.0859 3.19455C14.1751 3.08095 14.249 2.85285 14.011 2.80326C13.8533 2.76991 13.7027 2.7095 13.6125 2.8231C13.5233 2.9367 13.5566 3.1125 13.6874 3.21438C13.8181 3.31626 13.9957 3.30815 14.0859 3.19455Z" fill="#140D0F"/>
<path d="M15.8159 2.54367C15.8159 2.54367 15.5211 0.687322 13.8811 0.873047C13.8811 0.873047 11.363 0.894685 12.0464 3.68597C12.0464 3.68597 14.0389 5.93901 14.074 2.81234L15.8159 2.54367Z" fill="#5AC268"/>
<path style="mix-blend-mode:multiply" d="M12.5172 2.96018C12.5262 2.45349 12.6813 1.93238 12.8977 1.60781C13.0582 1.36619 13.2457 1.12367 13.4675 0.927124C12.7841 1.07408 11.5408 1.62314 12.0466 3.68595C12.0466 3.68595 12.8292 4.58572 13.4116 4.39639C12.7417 4.24763 12.5064 3.61653 12.5172 2.96018Z" fill="url(#paint11_linear_486_6515)"/>
<path d="M13.9662 2.77624C13.9662 2.77624 15.4925 2.61576 15.708 2.50758C15.7495 2.48684 16.4906 2.54003 16.8097 2.87452L13.9662 2.77624Z" fill="#447230"/>
<path d="M12.8727 1.56995L14.9031 2.40571L13.6012 2.10729L13.8455 2.08925L12.8727 1.56995Z" fill="#EAA941"/>
<path d="M12.8727 1.56995L14.9031 2.40571L13.6012 2.10729L13.8455 2.08925L12.8727 1.56995Z" stroke="#080C3E" stroke-width="0.0396694" stroke-linecap="round" stroke-linejoin="round"/>
<path d="M9.98886 12.707C9.98886 12.707 10.7633 12.4907 10.9761 12.1039" stroke="#080C3E" stroke-width="0.029752" stroke-linecap="round" stroke-linejoin="round"/>
<path d="M18.0674 11.1238C18.0674 11.1238 18.2126 11.095 18.2613 11.0562C18.3992 10.9462 18.6165 11.1022 18.8275 10.9336C18.8275 10.9336 19.0745 10.5946 19.2224 10.6126C19.2224 10.6126 19.3594 10.6685 19.4451 10.6775C19.4451 10.6775 19.5731 10.8074 19.757 10.8119C19.757 10.8119 19.9725 10.9994 20.105 10.9327C20.105 10.9327 20.1528 10.8939 20.0392 10.8128C20.0392 10.8128 19.7074 10.4711 19.693 10.435L19.8796 10.5008C19.8796 10.5008 20.0347 10.7028 20.1934 10.6839C20.1934 10.6839 20.261 10.6298 20.133 10.4999L19.9707 10.3377L19.8697 10.2556C19.8697 10.2556 19.9544 10.2277 19.9004 10.1078C19.9004 10.1078 19.7462 9.93014 19.7327 9.89408C19.7191 9.85802 19.6082 9.83818 19.5704 9.81474C19.5325 9.7922 19.3594 9.74983 19.2756 9.7895L19.0799 9.79761C19.0799 9.79761 18.896 9.7931 18.8491 9.85621C18.8491 9.85621 18.4822 10.1646 18.3623 10.2313C18.2424 10.2971 18.1387 10.3115 18.1387 10.3115C18.1387 10.3115 17.7185 10.673 18.0674 11.1247V11.1238Z" fill="#89525C"/>
<path d="M18.1143 11.0725C18.1143 11.0725 18.3685 10.9976 18.4064 11.0202C18.4443 11.0427 18.6615 11.0734 18.8274 10.9318C18.8274 10.9318 19.0871 10.6046 19.161 10.601C19.161 10.601 19.3476 10.6668 19.4089 10.665" stroke="#080C3E" stroke-width="0.0315552" stroke-linecap="round" stroke-linejoin="round"/>
<path d="M19.4837 10.7119C19.4837 10.7119 19.5973 10.8056 19.7443 10.7993C19.7443 10.7993 19.9481 10.9869 20.104 10.9192C20.104 10.9192 20.1762 10.8796 19.9607 10.7047C19.9607 10.7047 19.6677 10.4225 19.6406 10.3503C19.6406 10.3503 19.5252 10.2322 19.3774 10.2016L19.1799 10.1727" stroke="#080C3E" stroke-width="0.0315552" stroke-linecap="round" stroke-linejoin="round"/>
<path d="M19.7451 10.7993C19.7451 10.7993 19.8912 10.7686 19.7154 10.6658C19.7154 10.6658 19.5252 10.5017 19.4251 10.4567C19.4251 10.4567 19.2141 10.3918 19.1402 10.3701L18.9698 10.4017" stroke="#080C3E" stroke-width="0.0315552" stroke-linecap="round" stroke-linejoin="round"/>
<path d="M18.7409 10.3494L18.749 10.2511" stroke="#080C3E" stroke-width="0.0315552" stroke-linecap="round" stroke-linejoin="round"/>
<path d="M18.8767 10.0861L18.8803 9.98511" stroke="#080C3E" stroke-width="0.0315552" stroke-linecap="round" stroke-linejoin="round"/>
<path d="M19.73 10.4323L19.9185 10.5468C19.9185 10.5468 20.1348 10.746 20.2043 10.6459C20.2043 10.6459 20.2656 10.6559 20.06 10.407L19.9707 10.325L19.6408 10.0446C19.6408 10.0446 19.5164 10.0004 19.3685 9.98239L19.1837 9.95264" stroke="#080C3E" stroke-width="0.0315552" stroke-linecap="round" stroke-linejoin="round"/>
<path d="M19.8689 10.2186C19.8689 10.2186 19.9437 10.252 19.8626 10.0716L19.7841 9.95263C19.7841 9.95263 19.6561 9.81108 19.52 9.77953C19.52 9.77953 19.373 9.77322 19.2756 9.78945C19.1783 9.80567 19.0683 9.8219 19.0322 9.82371C18.9953 9.82551 18.897 9.81649 18.8149 9.90575C18.8149 9.90575 18.4714 10.2015 18.3389 10.2429C18.2055 10.2853 18.1225 10.3493 18.1225 10.3493" stroke="#080C3E" stroke-width="0.0315552" stroke-linecap="round" stroke-linejoin="round"/>
<path d="M18.9383 9.84716L18.9608 9.77954" stroke="#080C3E" stroke-width="0.0315552" stroke-linecap="round" stroke-linejoin="round"/>
<path d="M20.1878 10.6622C20.1878 10.6622 20.0652 10.5432 20.1202 10.481" stroke="#080C3E" stroke-width="0.0315552" stroke-linecap="round" stroke-linejoin="round"/>
<path d="M20.0866 10.9255C20.0866 10.9255 19.9415 10.866 20.001 10.7957" stroke="#080C3E" stroke-width="0.0315552" stroke-linecap="round" stroke-linejoin="round"/>
<path d="M19.7061 10.6938C19.7061 10.6938 19.6998 10.7452 19.7683 10.7687" stroke="#080C3E" stroke-width="0.0315552" stroke-linecap="round" stroke-linejoin="round"/>
<path d="M17.9008 10.3125H17.4626V10.9337H17.9008V10.3125Z" fill="#C1626E"/>
<path opacity="0.39" d="M12.9676 6.03632C12.9676 6.17787 12.7467 6.29237 12.4744 6.29237C12.2022 6.29237 11.9813 6.17787 11.9813 6.03632C11.9813 5.89477 12.2022 5.78027 12.4744 5.78027C12.7467 5.78027 12.9676 5.89477 12.9676 6.03632Z" fill="#6161AD"/>
<path d="M17.3903 11.0761C17.2397 11.0761 17.3362 10.9526 17.3362 10.8021V10.4955C17.3362 10.345 17.2397 10.2214 17.3903 10.2214C17.5408 10.2214 17.6643 10.345 17.6643 10.4955V10.8021C17.6643 10.9526 17.5408 11.0761 17.3903 11.0761Z" fill="#9595D8"/>
<path d="M12.5709 5.23117C12.5709 5.23117 11.4502 5.00127 11.3546 5.96415C11.2807 6.70254 12.8603 9.70479 13.3309 10.527C13.3309 10.527 13.6537 10.9048 14.0855 10.4847C14.0855 10.4847 14.1856 9.83552 13.8872 9.31891C13.8872 9.31891 13.1497 6.69713 13.2371 6.21479C13.2371 6.21479 13.1641 5.30149 12.5718 5.23027L12.5709 5.23117Z" fill="#CC5F3A"/>
<path d="M13.2864 10.4297C13.6831 10.9877 15.0418 11.0301 15.6386 11.1825C16.0173 11.279 16.4293 11.279 16.7827 11.4016C16.9585 11.4629 17.7889 12.0516 17.8709 11.4935C17.8709 11.4935 18.0612 10.1971 17.5328 9.90765C17.5328 9.90765 17.1749 9.73094 16.7954 10.0699C16.4149 10.4089 16.1201 10.2016 15.7937 10.0871C15.4664 9.97257 13.5407 8.88166 13.2945 9.73996C13.2215 9.99511 13.171 10.2638 13.2882 10.4288L13.2864 10.4297Z" fill="#CC5F3A"/>
<path d="M18.2694 11.1942C18.2694 11.1942 18.1468 11.2969 17.9088 11.3285C17.9088 11.3285 17.5806 11.1851 17.5644 10.2818C17.5644 10.2818 17.5617 10.0618 17.7708 10.0122C17.7708 10.0122 18.1107 10.0005 18.136 10.2151C18.136 10.2151 17.9539 10.582 18.145 10.9778C18.145 10.9778 18.3172 11.0842 18.2694 11.1933V11.1942Z" fill="#8E2B10"/>
<path d="M12.2495 5.24829L12.0989 5.48901C12.0989 5.48901 11.7987 6.09036 12.2252 6.88916C12.2252 6.88916 13.4125 9.83732 13.4179 9.91034C13.4234 9.98247 13.5757 10.371 14.0121 10.317C14.6197 10.2412 16.6645 10.8913 17.0973 10.875C17.53 10.8588 17.7437 10.7569 17.7464 10.628" stroke="white" stroke-width="0.0856498" stroke-miterlimit="10" stroke-linecap="round"/>
<path d="M17.57 10.3782C17.57 10.3782 17.5015 9.95899 17.9054 10.0293C17.9054 10.0293 18.3066 10.0491 18.0244 10.3629C18.0244 10.3629 17.9631 10.7226 18.1064 11.0706" stroke="#080C3E" stroke-width="0.0396694" stroke-linecap="round" stroke-linejoin="round"/>
<path d="M17.5656 10.5566C17.5656 10.5566 17.6305 11.2166 17.8848 11.3419C17.8848 11.3419 18.313 11.3383 18.2445 11.1174" stroke="#080C3E" stroke-width="0.0396694" stroke-linecap="round" stroke-linejoin="round"/>
<path d="M17.7982 11.2031C17.7982 11.2031 18.0155 11.1977 18.0777 11.1193" stroke="#080C3E" stroke-width="0.0396694" stroke-linecap="round" stroke-linejoin="round"/>
<path d="M17.7022 10.9994C17.7022 10.9994 17.9123 11.0066 18.0358 10.8804" stroke="#080C3E" stroke-width="0.0396694" stroke-linecap="round" stroke-linejoin="round"/>
<path d="M17.6504 10.7217C17.6504 10.7217 17.8803 10.7235 17.9741 10.6469" stroke="#080C3E" stroke-width="0.0396694" stroke-linecap="round" stroke-linejoin="round"/>
<path d="M17.6707 10.4035C17.6707 10.4035 17.8825 10.3792 17.9835 10.4044" stroke="#080C3E" stroke-width="0.0396694" stroke-linecap="round" stroke-linejoin="round"/>
<path d="M17.6677 10.1547C17.6677 10.1547 17.9733 10.0807 18.132 10.2331" stroke="#080C3E" stroke-width="0.0396694" stroke-linecap="round" stroke-linejoin="round"/>
<path d="M17.8838 11.342C17.8369 11.8081 17.4646 11.7423 17.149 11.58C16.7694 11.3853 16.3466 11.2789 15.9274 11.2167" stroke="#080C3E" stroke-width="0.0396694" stroke-linecap="round" stroke-linejoin="round"/>
<path d="M15.3593 11.1166C15.3593 11.1166 13.8077 10.838 13.4967 10.6072" stroke="#080C3E" stroke-width="0.0396694" stroke-linecap="round" stroke-linejoin="round"/>
<path d="M13.9319 9.49285C13.9319 9.49285 14.0617 9.35491 14.3367 9.44868C14.7469 9.61457 15.1427 9.81381 15.5484 9.99052C15.7937 10.0969 16.3905 10.4503 16.6321 10.1781" stroke="#080C3E" stroke-width="0.0396694" stroke-linecap="round" stroke-linejoin="round"/>
<path d="M16.7934 10.0635C16.7934 10.0635 17.1405 9.75519 17.5345 9.91567" stroke="#080C3E" stroke-width="0.0396694" stroke-linecap="round" stroke-linejoin="round"/>
<path d="M13.2704 10.317C13.2704 10.317 11.9487 7.96928 11.7179 7.349" stroke="#080C3E" stroke-width="0.0396694" stroke-linecap="round" stroke-linejoin="round"/>
<path d="M11.5422 6.9044C11.5422 6.9044 11.131 6.05331 11.4592 5.58179" stroke="#080C3E" stroke-width="0.0396694" stroke-linecap="round" stroke-linejoin="round"/>
<path d="M13.2068 6.35173C13.2068 6.35173 13.2483 5.72603 12.9156 5.43933" stroke="#080C3E" stroke-width="0.0396694" stroke-linecap="round" stroke-linejoin="round"/>
<path d="M13.2218 6.46985C13.2218 6.46985 13.7898 8.96902 13.9322 9.29268" stroke="#080C3E" stroke-width="0.0396694" stroke-linecap="round" stroke-linejoin="round"/>
<path d="M11.57 5.46285C11.57 5.46285 11.8044 5.10673 12.5212 5.23746" stroke="#080C3E" stroke-width="0.0396694" stroke-linecap="round" stroke-linejoin="round"/>
<path d="M19.7656 10.7515C19.7656 10.994 19.569 11.1897 19.3274 11.1897C19.0858 11.1897 18.8892 10.9931 18.8892 10.7515C18.8892 10.5099 19.0858 10.3134 19.3274 10.3134C19.569 10.3134 19.7656 10.5099 19.7656 10.7515Z" fill="#0E0E35"/>
<path style="mix-blend-mode:overlay" d="M19.6815 10.7516C19.6815 10.9472 19.5228 11.1068 19.3262 11.1068C19.1297 11.1068 18.971 10.9481 18.971 10.7516C18.971 10.555 19.1297 10.3964 19.3262 10.3964C19.5228 10.3964 19.6815 10.555 19.6815 10.7516Z" fill="url(#paint12_linear_486_6515)"/>
<path d="M11.1051 22.0618C11.1051 22.0618 12.8578 17.1464 5.46578 17.1843C5.46578 17.1843 1.76931 16.9553 1.23558 22.0618H10.9528" fill="#5AC268"/>
<path d="M11.1051 22.0618C11.1051 22.0618 12.8578 17.1464 5.46578 17.1843C5.46578 17.1843 1.76931 16.9553 1.23558 22.0618H10.9528" stroke="#080C3E" stroke-width="0.029752" stroke-linecap="round" stroke-linejoin="round"/>
<path style="mix-blend-mode:multiply" d="M5.69942 17.1852C5.86712 17.251 6.03481 17.3168 6.1998 17.3889C6.63256 17.5765 7.09416 17.7856 7.43586 18.1192C8.87388 19.523 5.04668 20.6635 4.20461 20.8961C3.27779 21.1512 2.30319 21.3451 1.33579 21.3487C1.29522 21.5741 1.26096 21.8121 1.23482 22.0627H11.1044C11.1044 22.0627 12.8183 17.2528 5.69852 17.1861L5.69942 17.1852Z" fill="url(#paint13_linear_486_6515)"/>
<path d="M22.9825 19.0118L20.8629 23.654H23.3116L24.0428 22.2287C24.0428 22.2287 24.2258 21.6435 25.0661 21.7166H30.0004C30.0004 21.7166 29.6353 18.6828 25.1391 18.9388L22.9825 19.0118Z" fill="#5AC268"/>
<path d="M22.9825 19.0118L20.8629 23.654H23.3116L24.0428 22.2287C24.0428 22.2287 24.2258 21.6435 25.0661 21.7166H30.0004C30.0004 21.7166 29.6353 18.6828 25.1391 18.9388L22.9825 19.0118Z" stroke="#080C3E" stroke-width="0.029752" stroke-linecap="round" stroke-linejoin="round"/>
<path style="mix-blend-mode:multiply" d="M27.9071 20.4102C27.0776 20.412 26.2617 20.2371 25.4485 20.0892C24.5343 19.9233 23.6462 19.9026 22.8456 20.4426C22.4661 20.6987 22.1541 21.0359 21.8873 21.4082L20.8622 23.6531H23.3108L24.042 22.2277C24.042 22.2277 24.225 21.6426 25.0653 21.7156H29.9996C29.9996 21.7156 29.9014 20.9159 29.199 20.1721C28.806 20.347 28.348 20.4084 27.9062 20.4093L27.9071 20.4102Z" fill="url(#paint14_linear_486_6515)"/>
<path d="M19.7655 8.79965C19.7655 9.1711 19.2831 9.47223 19.0154 9.47223C18.7476 9.47223 18.7061 9.1711 18.7061 8.79965C18.7061 8.4282 18.7467 8.12708 19.0154 8.12708C19.284 8.12708 19.7655 8.4282 19.7655 8.79965Z" fill="#5AC268"/>
<g style="mix-blend-mode:multiply">
<path d="M19.3906 8.25427C19.4826 8.35886 19.5448 8.48327 19.5448 8.6158C19.5448 8.98725 19.0624 9.28838 18.7947 9.28838C18.7847 9.28838 18.7748 9.28748 18.7649 9.28658C18.8091 9.40108 18.8857 9.4723 19.0155 9.4723C19.2833 9.4723 19.7657 9.17118 19.7657 8.79973C19.7657 8.57523 19.5889 8.37599 19.3906 8.25427Z" fill="url(#paint15_linear_486_6515)"/>
</g>
<path d="M19.7658 8.79966C19.7658 8.79966 20.1679 8.77802 20.2048 8.99711C20.2418 9.21619 20.4239 10.1304 20.4239 10.1304L20.1318 10.0204L19.9857 9.18013C19.9857 9.18013 19.6936 8.99711 19.5106 8.99711L19.7667 8.79966H19.7658Z" fill="#5AC268"/>
<path d="M10.7012 22.7029H1.34468C1.06338 22.7029 0.832581 22.473 0.832581 22.1908C0.832581 21.9095 1.06248 21.6787 1.34468 21.6787H10.7012C10.9825 21.6787 11.2133 21.9086 11.2133 22.1908C11.2133 22.4721 10.9834 22.7029 10.7012 22.7029Z" fill="#4E5175"/>
<path opacity="0.43" d="M10.6652 21.7526C10.6652 21.7273 10.6616 21.7039 10.658 21.6796H1.34468C1.06338 21.6796 0.832581 21.9095 0.832581 22.1917C0.832581 22.2169 0.836187 22.2403 0.839793 22.2647H10.1522C10.4335 22.2647 10.6643 22.0348 10.6643 21.7526H10.6652Z" fill="#767A99"/>
<path d="M30.3649 22.7029H24.19C23.9087 22.7029 23.6779 22.473 23.6779 22.1908C23.6779 21.9095 23.9078 21.6787 24.19 21.6787H30.3649C30.6462 21.6787 30.877 21.9086 30.877 22.1908C30.877 22.4721 30.6471 22.7029 30.3649 22.7029Z" fill="#4E5175"/>
<g opacity="0.43">
<path d="M30.3649 21.6796H24.19C24.1675 21.6796 24.1459 21.6832 24.1242 21.6859C24.1215 21.7075 24.1179 21.7292 24.1179 21.7517C24.1179 22.033 24.3478 22.2638 24.63 22.2638H30.8049C30.8274 22.2638 30.8491 22.2602 30.8707 22.2575C30.8734 22.2358 30.877 22.2142 30.877 22.1917C30.877 21.9104 30.6471 21.6796 30.3649 21.6796Z" fill="#767A99"/>
</g>
<path d="M17.6457 23.8181H13.1865V23.9281H17.6457V23.8181Z" fill="#5AC268"/>
<path d="M17.6821 24.4393C17.3899 24.4393 17.1519 24.2013 17.1519 23.9092C17.1519 23.617 17.3899 23.379 17.6821 23.379C17.9742 23.379 18.2122 23.617 18.2122 23.9092C18.2122 24.2013 17.9742 24.4393 17.6821 24.4393ZM17.6821 23.489C17.4504 23.489 17.2619 23.6775 17.2619 23.9092C17.2619 24.1409 17.4504 24.3293 17.6821 24.3293C17.9138 24.3293 18.1022 24.1409 18.1022 23.9092C18.1022 23.6775 17.9138 23.489 17.6821 23.489Z" fill="#5AC268"/>
<path d="M13.4722 23.9092C13.4722 24.067 13.3442 24.195 13.1864 24.195C13.0286 24.195 12.9006 24.067 12.9006 23.9092C12.9006 23.7514 13.0286 23.6234 13.1864 23.6234C13.3442 23.6234 13.4722 23.7514 13.4722 23.9092Z" fill="#5AC268"/>
<path d="M4.85355 19.4869H2.58789" stroke="#080C3E" stroke-width="0.0450788" stroke-linecap="round" stroke-linejoin="round"/>
<path d="M4.85355 19.9252H2.58789" stroke="#080C3E" stroke-width="0.0450788" stroke-linecap="round" stroke-linejoin="round"/>
<path d="M4.85355 20.3641H2.58789" stroke="#080C3E" stroke-width="0.0450788" stroke-linecap="round" stroke-linejoin="round"/>
<path d="M4.85355 20.8024H2.58789" stroke="#080C3E" stroke-width="0.0450788" stroke-linecap="round" stroke-linejoin="round"/>
<path d="M15.0281 3.44432C15.0281 3.47768 15.0011 3.50472 14.9677 3.50472C14.9344 3.50472 14.9073 3.47768 14.9073 3.44432C14.9073 3.41096 14.9344 3.38391 14.9677 3.38391C15.0011 3.38391 15.0281 3.41096 15.0281 3.44432Z" fill="white"/>
<path d="M15.5024 3.3208C15.5024 3.3208 16.2228 4.64522 15.2518 4.27918" stroke="#24181A" stroke-width="0.0477836" stroke-linecap="round" stroke-linejoin="round"/>
<path d="M14.9791 4.05826H14.6897C14.6032 4.05826 14.5329 3.98793 14.5329 3.90138C14.5329 3.81483 14.6032 3.74451 14.6897 3.74451H14.9791C15.0657 3.74451 15.136 3.81483 15.136 3.90138C15.136 3.98793 15.0657 4.05826 14.9791 4.05826Z" fill="#703E49"/>
<path d="M15.1196 4.68483C15.1196 4.68483 14.8266 4.70737 14.5111 4.50452" stroke="#24181A" stroke-width="0.0477836" stroke-linecap="round" stroke-linejoin="round"/>
<path d="M20.8532 13.5817L24.427 18.0995L21.8305 15.7463L22.4138 16.0186L20.8532 13.5817Z" fill="#EAA941"/>
<path d="M20.8532 13.5817L24.427 18.0995L21.8305 15.7463L22.4138 16.0186L20.8532 13.5817Z" stroke="#080C3E" stroke-width="0.0396694" stroke-linecap="round" stroke-linejoin="round"/>
<path d="M11.2571 12.2806C11.2571 12.2806 13.9014 12.4312 14.9238 12.7017" stroke="#080C3E" stroke-width="0.029752" stroke-linecap="round" stroke-linejoin="round"/>
<path d="M15.0146 12.7017C15.3058 12.7215 15.8711 12.8603 16.1515 12.9451C17.2469 13.2769 17.2262 14.2208 17.0288 15.1666" stroke="#080C3E" stroke-width="0.029752" stroke-linecap="round" stroke-linejoin="round"/>
<path d="M16.968 15.3766L15.9916 19.9737L15.0747 19.8241" stroke="#080C3E" stroke-width="0.029752" stroke-linecap="round" stroke-linejoin="round"/>
<path d="M15.0443 19.3436C15.0443 19.3436 14.8036 14.7456 15.074 14.3552" stroke="#080C3E" stroke-width="0.029752" stroke-linecap="round" stroke-linejoin="round"/>
<path d="M15.0146 14.7753C15.0146 14.7753 13.6027 15.1061 12.1899 15.1963" stroke="#080C3E" stroke-width="0.029752" stroke-linecap="round" stroke-linejoin="round"/>
<path d="M11.7686 15.2261C11.7686 15.2261 10.2359 15.1964 9.7247 15.0756" stroke="#080C3E" stroke-width="0.029752" stroke-linecap="round" stroke-linejoin="round"/>
<path d="M9.15434 14.9259C9.15434 14.9259 7.89213 14.8357 7.5919 13.4536" stroke="#080C3E" stroke-width="0.029752" stroke-linecap="round" stroke-linejoin="round"/>
<path d="M9.60459 12.2212C9.60459 12.2212 9.54418 13.2427 9.7245 13.5736C9.7245 13.5736 11.4672 13.9946 12.129 13.9342C12.7899 13.8738 15.6749 13.4834 15.9156 14.2047" stroke="#080C3E" stroke-width="0.029752" stroke-linecap="round" stroke-linejoin="round"/>
<path d="M15.9766 14.5652L15.946 15.0755" stroke="#080C3E" stroke-width="0.029752" stroke-linecap="round" stroke-linejoin="round"/>
<path d="M15.9648 19.724L15.1047 19.5834" stroke="#080C3E" stroke-width="0.029752" stroke-linecap="round" stroke-linejoin="round"/>
<path d="M15.5257 19.6141L15.8557 15.5264" stroke="#080C3E" stroke-width="0.029752" stroke-linecap="round" stroke-linejoin="round"/>
<path d="M12.1899 12.2806L16.5175 12.7918C16.5175 12.7918 17.5994 12.7918 17.75 13.7836" stroke="#080C3E" stroke-width="0.029752" stroke-linecap="round" stroke-linejoin="round"/>
<path d="M17.7489 14.0839C17.7489 14.0839 17.9896 14.5644 17.0574 18.2014" stroke="#080C3E" stroke-width="0.029752" stroke-linecap="round" stroke-linejoin="round"/>
<path d="M16.998 18.5015L16.7275 19.5536L16.1568 19.5239" stroke="#080C3E" stroke-width="0.029752" stroke-linecap="round" stroke-linejoin="round"/>
<path d="M16.7537 19.3183L16.1568 19.2228" stroke="#080C3E" stroke-width="0.029752" stroke-linecap="round" stroke-linejoin="round"/>
<path d="M12.0095 11.627C12.0095 11.627 12.1321 11.9957 11.7255 12.213L7.99751 11.7541C7.99751 11.7541 7.75499 12.3581 7.68196 12.6412" stroke="#080C3E" stroke-width="0.029752" stroke-linecap="round" stroke-linejoin="round"/>
<path d="M8.07025 11.1807C8.07025 11.1807 7.80158 11.6188 7.99722 11.7541" stroke="#080C3E" stroke-width="0.029752" stroke-linecap="round" stroke-linejoin="round"/>
<path d="M11.897 11.6269L8.20053 11.2438" stroke="#080C3E" stroke-width="0.029752" stroke-linecap="round" stroke-linejoin="round"/>
<path d="M12.8429 9.57593C12.8429 9.57593 12.5202 10.1475 12.4598 10.3873C12.4598 10.3873 12.3398 10.748 12.2794 11.0185C12.2794 11.0185 12.1893 11.4323 12.0991 11.5296" stroke="#080C3E" stroke-width="0.029752" stroke-linecap="round" stroke-linejoin="round"/>
<path d="M11.8884 4.94806C11.8884 4.94806 10.2953 4.82815 9.18362 7.53288" stroke="#080C3E" stroke-width="0.029752" stroke-linecap="round" stroke-linejoin="round"/>
<path d="M12.7305 9.44067C12.7305 9.44067 12.2121 10.3197 12.1444 11.1311C12.1444 11.1311 12.1444 11.4692 11.8965 11.4918" stroke="#080C3E" stroke-width="0.029752" stroke-linecap="round" stroke-linejoin="round"/>
<path d="M9.0564 7.75024C9.0564 7.75024 8.22244 9.48578 8.04212 10.3423C8.04212 10.3423 7.95196 10.8381 7.9745 11.0635" stroke="#080C3E" stroke-width="0.029752" stroke-linecap="round" stroke-linejoin="round"/>
<path d="M14.0105 2.80322C14.0105 2.80322 15.5369 2.57783 15.7506 2.48767C15.7506 2.48767 16.5728 2.5634 16.8099 2.87445L14.5226 2.80322" stroke="#080C3E" stroke-width="0.029752" stroke-linecap="round" stroke-linejoin="round"/>
<path d="M15.5139 2.74646H14.6574" stroke="#080C3E" stroke-width="0.029752" stroke-linecap="round" stroke-linejoin="round"/>
<path d="M15.7961 2.46518C15.7961 2.46518 15.5374 0.549329 13.6098 0.88742" stroke="#080C3E" stroke-width="0.029752" stroke-linecap="round" stroke-linejoin="round"/>
<path d="M13.4685 0.927124C13.4685 0.927124 13.0231 1.04523 12.8878 1.12457" stroke="#080C3E" stroke-width="0.029752" stroke-linecap="round" stroke-linejoin="round"/>
<path d="M12.7303 1.21375C12.1181 1.55905 11.8927 2.34072 11.9315 2.99797C11.9459 3.23688 11.954 3.51367 12.0893 3.72103C12.183 3.86528 12.339 3.98699 12.4715 4.09338C12.7745 4.33681 13.2298 4.61539 13.6202 4.40352" stroke="#080C3E" stroke-width="0.029752" stroke-linecap="round" stroke-linejoin="round"/>
<path d="M14.0833 2.88171C14.0833 2.88171 14.1166 3.85091 13.7344 4.26834" stroke="#080C3E" stroke-width="0.029752" stroke-linecap="round" stroke-linejoin="round"/>
<path d="M13.3164 4.18898C13.3164 4.18898 12.652 4.00866 12.5952 3.29822" stroke="#080C3E" stroke-width="0.029752" stroke-linecap="round" stroke-linejoin="round"/>
<path d="M15.1077 4.76416L15.0627 4.8426" stroke="#080C3E" stroke-width="0.029752" stroke-linecap="round" stroke-linejoin="round"/>
<path d="M15.0299 4.93274C15.0299 4.93274 14.7486 5.90193 13.7344 5.47369" stroke="#080C3E" stroke-width="0.029752" stroke-linecap="round" stroke-linejoin="round"/>
<path d="M12.4706 4.24585C12.4706 4.24585 12.7293 5.13661 13.5182 5.37282" stroke="#080C3E" stroke-width="0.029752" stroke-linecap="round" stroke-linejoin="round"/>
<path d="M12.426 4.17822C12.426 4.17822 12.4369 4.30264 12.28 4.61819" stroke="#080C3E" stroke-width="0.029752" stroke-linecap="round" stroke-linejoin="round"/>
<path d="M13.2376 5.95874C13.2376 5.95874 13.5189 6.86032 13.4963 7.49142" stroke="#080C3E" stroke-width="0.029752" stroke-linecap="round" stroke-linejoin="round"/>
<path d="M19.7655 8.79965C19.7655 9.1711 19.2831 9.47223 19.0154 9.47223C18.7476 9.47223 18.7061 9.1711 18.7061 8.79965C18.7061 8.4282 18.7467 8.12708 19.0154 8.12708C19.284 8.12708 19.7655 8.4282 19.7655 8.79965Z" stroke="#080C3E" stroke-width="0.0396694" stroke-linecap="round" stroke-linejoin="round"/>
<path d="M19.7657 8.79973C19.7657 8.79973 20.0182 8.77989 20.1688 8.91513L20.3779 10.0439" stroke="#080C3E" stroke-width="0.0396694" stroke-linecap="round" stroke-linejoin="round"/>
<path d="M19.8078 9.09534L19.9845 9.18008L20.1008 9.26664" stroke="#080C3E" stroke-width="0.0396694" stroke-linecap="round" stroke-linejoin="round"/>
<path d="M19.9849 9.18005L20.1084 9.96713" stroke="#080C3E" stroke-width="0.0396694" stroke-linecap="round" stroke-linejoin="round"/>
<path d="M21.8213 10.2521C21.8213 10.2521 21.641 10.4026 21.3552 10.3422" stroke="#080C3E" stroke-width="0.0396694" stroke-linecap="round" stroke-linejoin="round"/>
<path d="M21.9564 10.5226C21.9564 10.5226 21.896 10.6578 21.4903 10.5974" stroke="#080C3E" stroke-width="0.0396694" stroke-linecap="round" stroke-linejoin="round"/>
<path d="M21.9865 10.9436C21.9865 10.9436 21.7161 11.0185 21.4303 10.8986" stroke="#080C3E" stroke-width="0.0396694" stroke-linecap="round" stroke-linejoin="round"/>
<path d="M21.7611 11.3944C21.7611 11.3944 21.5358 11.334 21.4303 11.1843" stroke="#080C3E" stroke-width="0.0396694" stroke-linecap="round" stroke-linejoin="round"/>
<path d="M21.3702 9.99695C21.3702 9.99695 22.0013 10.4631 21.5659 11.4692" stroke="#080C3E" stroke-width="0.0396694" stroke-linecap="round" stroke-linejoin="round"/>
<path d="M15.5099 2.91956V3.16028" stroke="#080C3E" stroke-width="0.029752" stroke-linecap="round" stroke-linejoin="round"/>
<path d="M10.2357 17.1644C10.2357 17.1644 11.4682 17.5251 11.9785 18.5465" stroke="#080C3E" stroke-width="0.029752" stroke-linecap="round" stroke-linejoin="round"/>
<path d="M10.7012 22.7029H1.34468C1.06338 22.7029 0.832581 22.473 0.832581 22.1908C0.832581 21.9095 1.06248 21.6787 1.34468 21.6787H10.7012C10.9825 21.6787 11.2133 21.9086 11.2133 22.1908C11.2133 22.4721 10.9834 22.7029 10.7012 22.7029Z" stroke="#080C3E" stroke-width="0.029752" stroke-linecap="round" stroke-linejoin="round"/>
<path d="M30.3649 22.7029H24.19C23.9087 22.7029 23.6779 22.473 23.6779 22.1908C23.6779 21.9095 23.9078 21.6787 24.19 21.6787H30.3649C30.6462 21.6787 30.877 21.9086 30.877 22.1908C30.877 22.4721 30.6471 22.7029 30.3649 22.7029Z" stroke="#080C3E" stroke-width="0.029752" stroke-linecap="round" stroke-linejoin="round"/>
<g opacity="0.17">
<path d="M10.9885 3.77612H5.21841" stroke="#6294E3" stroke-width="0.0901577" stroke-miterlimit="10"/>
<path d="M6.66097 5.09875H1.25151" stroke="#6294E3" stroke-width="0.0901577" stroke-miterlimit="10"/>
<path d="M10.3873 6.54126H7.02174" stroke="#6294E3" stroke-width="0.0901577" stroke-miterlimit="10"/>
<path d="M7.14129 10.8085H3.41507" stroke="#6294E3" stroke-width="0.0901577" stroke-miterlimit="10"/>
<path d="M6.48042 13.6935H1.73181" stroke="#6294E3" stroke-width="0.0901577" stroke-miterlimit="10"/>
<path d="M10.0871 17.7812H2.93404" stroke="#6294E3" stroke-width="0.0901577" stroke-miterlimit="10"/>
</g>
<path d="M20.1845 11.7406L20.7525 12.2139" stroke="#080C3E" stroke-width="0.0396694" stroke-linecap="round" stroke-linejoin="round"/>
<defs>
<linearGradient id="paint0_linear_486_6515" x1="11.9864" y1="8.64223" x2="17.941" y2="8.38121" gradientUnits="userSpaceOnUse">
<stop stop-color="#19173E" stop-opacity="0"/>
<stop offset="0.65" stop-color="#19173E" stop-opacity="0.63"/>
<stop offset="1" stop-color="#19173E"/>
</linearGradient>
<linearGradient id="paint1_linear_486_6515" x1="6.03847" y1="18.9965" x2="14.2834" y2="18.9965" gradientUnits="userSpaceOnUse">
<stop stop-color="#DBDEE0" stop-opacity="0"/>
<stop offset="0.18" stop-color="#DBDEE0" stop-opacity="0.01"/>
<stop offset="0.32" stop-color="#DBDEE0" stop-opacity="0.06"/>
<stop offset="0.44" stop-color="#DBDEE0" stop-opacity="0.13"/>
<stop offset="0.56" stop-color="#DBDEE0" stop-opacity="0.23"/>
<stop offset="0.67" stop-color="#DBDEE0" stop-opacity="0.37"/>
<stop offset="0.78" stop-color="#DBDEE0" stop-opacity="0.53"/>
<stop offset="0.88" stop-color="#DBDEE0" stop-opacity="0.72"/>
<stop offset="0.98" stop-color="#DBDEE0" stop-opacity="0.94"/>
<stop offset="1" stop-color="#DBDEE0"/>
</linearGradient>
<linearGradient id="paint2_linear_486_6515" x1="7.78546" y1="15.8824" x2="17.8119" y2="15.8824" gradientUnits="userSpaceOnUse">
<stop stop-color="#EAA941"/>
<stop offset="0.32" stop-color="#EAA941" stop-opacity="0.99"/>
<stop offset="0.46" stop-color="#EAA941" stop-opacity="0.96"/>
<stop offset="0.56" stop-color="#EAA941" stop-opacity="0.91"/>
<stop offset="0.65" stop-color="#EAA941" stop-opacity="0.83"/>
<stop offset="0.73" stop-color="#EAA941" stop-opacity="0.73"/>
<stop offset="0.8" stop-color="#EAA941" stop-opacity="0.61"/>
<stop offset="0.86" stop-color="#EAA941" stop-opacity="0.46"/>
<stop offset="0.92" stop-color="#EAA941" stop-opacity="0.29"/>
<stop offset="0.97" stop-color="#EAA941" stop-opacity="0.1"/>
<stop offset="1" stop-color="#EAA941" stop-opacity="0"/>
</linearGradient>
<linearGradient id="paint3_linear_486_6515" x1="2.97902" y1="23.069" x2="9.24498" y2="23.069" gradientUnits="userSpaceOnUse">
<stop stop-color="#4E5175"/>
<stop offset="0.32" stop-color="#4E5175" stop-opacity="0.98"/>
<stop offset="0.5" stop-color="#4E5175" stop-opacity="0.91"/>
<stop offset="0.63" stop-color="#4E5175" stop-opacity="0.8"/>
<stop offset="0.75" stop-color="#4E5175" stop-opacity="0.63"/>
<stop offset="0.85" stop-color="#4E5175" stop-opacity="0.42"/>
<stop offset="0.95" stop-color="#4E5175" stop-opacity="0.16"/>
<stop offset="1" stop-color="#4E5175" stop-opacity="0"/>
</linearGradient>
<linearGradient id="paint4_linear_486_6515" x1="2.97902" y1="23.069" x2="9.24498" y2="23.069" gradientUnits="userSpaceOnUse">
<stop stop-color="#4E5175"/>
<stop offset="0.32" stop-color="#4E5175" stop-opacity="0.98"/>
<stop offset="0.5" stop-color="#4E5175" stop-opacity="0.91"/>
<stop offset="0.63" stop-color="#4E5175" stop-opacity="0.8"/>
<stop offset="0.75" stop-color="#4E5175" stop-opacity="0.63"/>
<stop offset="0.85" stop-color="#4E5175" stop-opacity="0.42"/>
<stop offset="0.95" stop-color="#4E5175" stop-opacity="0.16"/>
<stop offset="1" stop-color="#4E5175" stop-opacity="0"/>
</linearGradient>
<linearGradient id="paint5_linear_486_6515" x1="23.3996" y1="0.832475" x2="29.6656" y2="0.832475" gradientUnits="userSpaceOnUse">
<stop stop-color="#4E5175"/>
<stop offset="0.32" stop-color="#4E5175" stop-opacity="0.98"/>
<stop offset="0.5" stop-color="#4E5175" stop-opacity="0.91"/>
<stop offset="0.63" stop-color="#4E5175" stop-opacity="0.8"/>
<stop offset="0.75" stop-color="#4E5175" stop-opacity="0.63"/>
<stop offset="0.85" stop-color="#4E5175" stop-opacity="0.42"/>
<stop offset="0.95" stop-color="#4E5175" stop-opacity="0.16"/>
<stop offset="1" stop-color="#4E5175" stop-opacity="0"/>
</linearGradient>
<linearGradient id="paint6_linear_486_6515" x1="23.3996" y1="0.832475" x2="29.6656" y2="0.832475" gradientUnits="userSpaceOnUse">
<stop stop-color="#4E5175"/>
<stop offset="0.32" stop-color="#4E5175" stop-opacity="0.98"/>
<stop offset="0.5" stop-color="#4E5175" stop-opacity="0.91"/>
<stop offset="0.63" stop-color="#4E5175" stop-opacity="0.8"/>
<stop offset="0.75" stop-color="#4E5175" stop-opacity="0.63"/>
<stop offset="0.85" stop-color="#4E5175" stop-opacity="0.42"/>
<stop offset="0.95" stop-color="#4E5175" stop-opacity="0.16"/>
<stop offset="1" stop-color="#4E5175" stop-opacity="0"/>
</linearGradient>
<linearGradient id="paint7_linear_486_6515" x1="5.33922" y1="15.8202" x2="14.868" y2="15.8202" gradientUnits="userSpaceOnUse">
<stop stop-color="#4E5175"/>
<stop offset="0.32" stop-color="#4E5175" stop-opacity="0.98"/>
<stop offset="0.5" stop-color="#4E5175" stop-opacity="0.91"/>
<stop offset="0.63" stop-color="#4E5175" stop-opacity="0.8"/>
<stop offset="0.75" stop-color="#4E5175" stop-opacity="0.63"/>
<stop offset="0.85" stop-color="#4E5175" stop-opacity="0.42"/>
<stop offset="0.95" stop-color="#4E5175" stop-opacity="0.16"/>
<stop offset="1" stop-color="#4E5175" stop-opacity="0"/>
</linearGradient>
<linearGradient id="paint8_linear_486_6515" x1="7.94812" y1="8.72841" x2="13.317" y2="8.72841" gradientUnits="userSpaceOnUse">
<stop stop-color="#6F2929" stop-opacity="0"/>
<stop offset="0.38" stop-color="#6F2929" stop-opacity="0.35"/>
<stop offset="1" stop-color="#6F2929"/>
</linearGradient>
<linearGradient id="paint9_linear_486_6515" x1="7.60703" y1="13.4797" x2="14.9089" y2="13.4797" gradientUnits="userSpaceOnUse">
<stop stop-color="#EAA941"/>
<stop offset="0.32" stop-color="#EAA941" stop-opacity="0.99"/>
<stop offset="0.46" stop-color="#EAA941" stop-opacity="0.96"/>
<stop offset="0.56" stop-color="#EAA941" stop-opacity="0.91"/>
<stop offset="0.65" stop-color="#EAA941" stop-opacity="0.83"/>
<stop offset="0.73" stop-color="#EAA941" stop-opacity="0.73"/>
<stop offset="0.8" stop-color="#EAA941" stop-opacity="0.61"/>
<stop offset="0.86" stop-color="#EAA941" stop-opacity="0.46"/>
<stop offset="0.92" stop-color="#EAA941" stop-opacity="0.29"/>
<stop offset="0.97" stop-color="#EAA941" stop-opacity="0.1"/>
<stop offset="1" stop-color="#EAA941" stop-opacity="0"/>
</linearGradient>
<linearGradient id="paint10_linear_486_6515" x1="12.4062" y1="4.73537" x2="13.3394" y2="4.73537" gradientUnits="userSpaceOnUse">
<stop stop-color="#BF626E" stop-opacity="0"/>
<stop offset="0.03" stop-color="#BF626E" stop-opacity="0.05"/>
<stop offset="0.22" stop-color="#BF626E" stop-opacity="0.34"/>
<stop offset="0.4" stop-color="#BF626E" stop-opacity="0.58"/>
<stop offset="0.57" stop-color="#BF626E" stop-opacity="0.76"/>
<stop offset="0.73" stop-color="#BF626E" stop-opacity="0.89"/>
<stop offset="0.88" stop-color="#BF626E" stop-opacity="0.97"/>
<stop offset="1" stop-color="#BF626E"/>
</linearGradient>
<linearGradient id="paint11_linear_486_6515" x1="12.6984" y1="4.42254" x2="12.6984" y2="0.927124" gradientUnits="userSpaceOnUse">
<stop stop-color="#49CFC1"/>
<stop offset="0.09" stop-color="#49CFC1" stop-opacity="0.9"/>
<stop offset="0.42" stop-color="#49CFC1" stop-opacity="0.52"/>
<stop offset="0.69" stop-color="#49CFC1" stop-opacity="0.24"/>
<stop offset="0.89" stop-color="#49CFC1" stop-opacity="0.07"/>
<stop offset="1" stop-color="#49CFC1" stop-opacity="0"/>
</linearGradient>
<linearGradient id="paint12_linear_486_6515" x1="18.9719" y1="10.7516" x2="19.6815" y2="10.7516" gradientUnits="userSpaceOnUse">
<stop stop-color="#BDBAFF" stop-opacity="0"/>
<stop offset="0.18" stop-color="#BDBAFF" stop-opacity="0.15"/>
<stop offset="0.57" stop-color="#BDBAFF" stop-opacity="0.55"/>
<stop offset="1" stop-color="#BDBAFF"/>
</linearGradient>
<linearGradient id="paint13_linear_486_6515" x1="1.23572" y1="19.6239" x2="11.2865" y2="19.6239" gradientUnits="userSpaceOnUse">
<stop stop-color="#49CFC1"/>
<stop offset="0.09" stop-color="#49CFC1" stop-opacity="0.9"/>
<stop offset="0.42" stop-color="#49CFC1" stop-opacity="0.52"/>
<stop offset="0.69" stop-color="#49CFC1" stop-opacity="0.24"/>
<stop offset="0.89" stop-color="#49CFC1" stop-opacity="0.07"/>
<stop offset="1" stop-color="#49CFC1" stop-opacity="0"/>
</linearGradient>
<linearGradient id="paint14_linear_486_6515" x1="20.8622" y1="21.8193" x2="29.9996" y2="21.8193" gradientUnits="userSpaceOnUse">
<stop stop-color="#49CFC1"/>
<stop offset="0.09" stop-color="#49CFC1" stop-opacity="0.9"/>
<stop offset="0.42" stop-color="#49CFC1" stop-opacity="0.52"/>
<stop offset="0.69" stop-color="#49CFC1" stop-opacity="0.24"/>
<stop offset="0.89" stop-color="#49CFC1" stop-opacity="0.07"/>
<stop offset="1" stop-color="#49CFC1" stop-opacity="0"/>
</linearGradient>
<linearGradient id="paint15_linear_486_6515" x1="18.7649" y1="8.86374" x2="19.7657" y2="8.86374" gradientUnits="userSpaceOnUse">
<stop stop-color="#49CFC1"/>
<stop offset="0.09" stop-color="#49CFC1" stop-opacity="0.9"/>
<stop offset="0.42" stop-color="#49CFC1" stop-opacity="0.52"/>
<stop offset="0.69" stop-color="#49CFC1" stop-opacity="0.24"/>
<stop offset="0.89" stop-color="#49CFC1" stop-opacity="0.07"/>
<stop offset="1" stop-color="#49CFC1" stop-opacity="0"/>
</linearGradient>
</defs>
</svg>
